<svg width="40" height="40" viewBox="0 0 40 40" fill="none" xmlns="http://www.w3.org/2000/svg">
<path d="M20.6838 13.3697L21.922 13.542C22.005 12.8566 21.5182 12.2239 20.8343 12.1288L20.6838 13.3697ZM21.1145 9.81959L20.964 11.0605C21.6477 11.1556 22.2693 10.6772 22.3525 9.99187L21.1145 9.81959ZM10.4647 11.9477L10.6152 10.7068C9.9314 10.6116 9.30971 11.0901 9.22658 11.7754L10.4647 11.9477ZM10.8952 8.39755L9.65716 8.22527C9.57405 8.91061 10.061 9.54332 10.7447 9.63847L10.8952 8.39755ZM26.5768 9.97802L26.0027 14.7115L28.4788 15.0561L29.053 10.3226L26.5768 9.97802ZM23.6463 16.7317C23.1135 16.6576 22.7802 16.6105 22.5298 16.5568C22.292 16.5059 22.2243 16.4674 22.2062 16.4562L20.9287 18.586C21.2947 18.8115 21.6763 18.9272 22.0495 19.007C22.4098 19.0842 22.8487 19.1445 23.3453 19.2135L23.6463 16.7317ZM19.4458 13.1974C19.3798 13.7411 19.308 14.3321 19.2685 14.846C19.234 15.2955 19.202 15.9004 19.3182 16.3617L21.7357 15.786C21.7445 15.8212 21.732 15.7849 21.7312 15.6267C21.7303 15.4862 21.7383 15.3039 21.7555 15.0809C21.7898 14.633 21.8542 14.101 21.922 13.542L19.4458 13.1974ZM22.2062 16.4562C21.9923 16.3245 21.8127 16.0915 21.7357 15.786L19.3182 16.3617C19.549 17.2784 20.1178 18.0867 20.9287 18.586L22.2062 16.4562ZM26.0027 14.7115C25.934 15.2788 25.8888 15.646 25.8368 15.9248C25.7865 16.1941 25.7442 16.294 25.7192 16.3404L27.9192 17.5585C28.1153 17.1934 28.2168 16.8119 28.2887 16.4268C28.3588 16.0514 28.414 15.5915 28.4788 15.0561L26.0027 14.7115ZM23.3453 19.2135C23.842 19.2827 24.2807 19.3445 24.6475 19.3685C25.0273 19.3934 25.424 19.3862 25.8317 19.2684L25.1045 16.8595C25.0843 16.8654 25.0097 16.884 24.7677 16.8682C24.5127 16.8515 24.1793 16.8059 23.6463 16.7317L23.3453 19.2135ZM25.7192 16.3404C25.572 16.6147 25.3427 16.7907 25.1045 16.8595L25.8317 19.2684C26.7347 19.0074 27.4773 18.3817 27.9192 17.5585L25.7192 16.3404ZM24.7807 7.3799C25.3135 7.45405 25.6468 7.50122 25.8972 7.55484C26.135 7.60574 26.2027 7.64432 26.2208 7.65552L27.4983 5.52559C27.1323 5.30012 26.7507 5.18455 26.3775 5.10465C26.0172 5.02749 25.5783 4.9672 25.0817 4.89809L24.7807 7.3799ZM29.053 10.3226C29.118 9.78711 29.1743 9.3274 29.196 8.94527C29.2185 8.5534 29.2113 8.15671 29.1088 7.75001L26.6913 8.32564C26.7043 8.37727 26.7215 8.48546 26.7058 8.75954C26.6897 9.04337 26.6457 9.41076 26.5768 9.97802L29.053 10.3226ZM26.2208 7.65552C26.4347 7.78719 26.6143 8.02015 26.6913 8.32564L29.1088 7.75001C28.878 6.83324 28.3092 6.025 27.4983 5.52559L26.2208 7.65552ZM25.0817 4.89809C24.585 4.82899 24.1463 4.76715 23.7795 4.74314C23.3997 4.71827 23.003 4.72552 22.5953 4.84332L23.3225 7.2522C23.3427 7.24635 23.4173 7.22759 23.6593 7.24344C23.9143 7.26014 24.2478 7.30575 24.7807 7.3799L25.0817 4.89809ZM22.3525 9.99187C22.4203 9.43284 22.4852 8.90091 22.5587 8.45847C22.5953 8.23822 22.631 8.05972 22.6653 7.92414C22.704 7.7714 22.7247 7.73977 22.7078 7.77132L20.5078 6.55314C20.2853 6.96732 20.172 7.56087 20.0982 8.00494C20.0138 8.5126 19.9423 9.10359 19.8763 9.64731L22.3525 9.99187ZM22.5953 4.84332C21.6923 5.10427 20.9497 5.73001 20.5078 6.55314L22.7078 7.77132C22.855 7.49704 23.0843 7.321 23.3225 7.2522L22.5953 4.84332ZM5.00228 11.7892L5.57638 7.05575L3.10023 6.71121L2.52615 11.4447L5.00228 11.7892ZM6.79848 14.3874C6.26563 14.3132 5.93233 14.266 5.68188 14.2124C5.44416 14.1615 5.37643 14.1229 5.35826 14.1117L4.08073 16.2417C4.44675 16.4671 4.8285 16.5827 5.2016 16.6626C5.56196 16.7397 6.00081 16.8 6.49748 16.8692L6.79848 14.3874ZM2.52615 11.4447C2.4612 11.9802 2.40485 12.4399 2.38303 12.822C2.36066 13.2139 2.36781 13.6105 2.47025 14.0173L4.88781 13.4416C4.87481 13.39 4.85768 13.2818 4.87331 13.0077C4.88953 12.7239 4.93348 12.3565 5.00228 11.7892L2.52615 11.4447ZM5.35826 14.1117C5.1445 13.9801 4.96476 13.7471 4.88781 13.4416L2.47025 14.0173C2.70115 14.934 3.26995 15.7423 4.08073 16.2417L5.35826 14.1117ZM9.22658 11.7754C9.15878 12.3344 9.09403 12.8664 9.02044 13.3088C8.98383 13.529 8.94813 13.7075 8.91379 13.8431C8.87513 13.9959 8.8544 14.0275 8.87133 13.9959L11.0713 15.2141C11.2937 14.7999 11.4071 14.2064 11.4809 13.7623C11.5653 13.2547 11.6368 12.6637 11.7027 12.12L9.22658 11.7754ZM6.49748 16.8692C6.99414 16.9382 7.43281 17 7.79961 17.024C8.1794 17.049 8.57605 17.0417 8.9837 16.9239L8.25664 14.5151C8.23639 14.5209 8.16173 14.5397 7.91976 14.5238C7.66483 14.5071 7.33135 14.4615 6.79848 14.3874L6.49748 16.8692ZM8.87133 13.9959C8.72406 14.2702 8.49473 14.4463 8.25664 14.5151L8.9837 16.9239C9.88669 16.663 10.6294 16.0373 11.0713 15.2141L8.87133 13.9959ZM7.93271 5.03547C8.46558 5.10962 8.79888 5.15679 9.04933 5.21042C9.28703 5.26132 9.35476 5.29989 9.37295 5.31109L10.6505 3.18115C10.2845 2.95569 9.9027 2.84012 9.52959 2.76024C9.16923 2.68305 8.73039 2.62277 8.23371 2.55367L7.93271 5.03547ZM12.1333 8.56984C12.1992 8.02612 12.2712 7.4352 12.3106 6.92127C12.3452 6.47176 12.3771 5.86687 12.2609 5.40557L9.84338 5.9812C9.83453 5.94607 9.84703 5.98232 9.848 6.14057C9.84885 6.28105 9.84078 6.46339 9.82364 6.68635C9.78923 7.13424 9.72496 7.66624 9.65716 8.22527L12.1333 8.56984ZM9.37295 5.31109C9.58671 5.44275 9.76645 5.67572 9.84338 5.9812L12.2609 5.40557C12.03 4.4888 11.4613 3.68057 10.6505 3.18115L9.37295 5.31109ZM8.23371 2.55367C7.73704 2.48455 7.29839 2.42274 6.93158 2.3987C6.55181 2.37384 6.15516 2.38109 5.7475 2.49889L6.47455 4.90777C6.4948 4.90192 6.56948 4.88315 6.81145 4.899C7.06636 4.9157 7.39986 4.96132 7.93271 5.03547L8.23371 2.55367ZM5.57638 7.05575C5.64518 6.48849 5.69031 6.12127 5.74236 5.84242C5.79261 5.57315 5.83498 5.47325 5.85988 5.42689L3.65986 4.2087C3.46381 4.57389 3.36228 4.95544 3.29043 5.34044C3.22036 5.71585 3.16518 6.1757 3.10023 6.71121L5.57638 7.05575ZM5.7475 2.49889C4.8445 2.75984 4.1018 3.38557 3.65986 4.2087L5.85988 5.42689C6.00713 5.1526 6.23648 4.97657 6.47455 4.90777L5.7475 2.49889ZM10.7447 9.63847L20.964 11.0605L21.265 8.57869L11.0457 7.15666L10.7447 9.63847ZM20.8343 12.1288L10.6152 10.7068L10.3142 13.1886L20.5333 14.6106L20.8343 12.1288Z" fill="#15155A"/>
<path d="M19.2478 30.7796L18.0463 31.1245C17.8788 30.4548 18.2808 29.7575 18.9445 29.567L19.2478 30.7796ZM18.3828 27.3216L18.6862 28.5343C18.0225 28.7248 17.3488 28.3363 17.1813 27.6666L18.3828 27.3216ZM29.2018 27.9228L28.8985 26.7101C29.562 26.5196 30.2357 26.9083 30.4033 27.578L29.2018 27.9228ZM28.3368 24.4648L29.5382 24.12C29.7058 24.7896 29.3037 25.487 28.6402 25.6775L28.3368 24.4648ZM12.9835 28.2536L14.1369 32.8643L11.7339 33.554L10.5805 28.9433L12.9835 28.2536ZM16.7253 34.5278C17.2442 34.379 17.5693 34.2848 17.8115 34.196C18.0417 34.1116 18.1053 34.0631 18.1233 34.0485L19.6457 35.9911C19.312 36.2655 18.9493 36.4335 18.5902 36.5651C18.243 36.6925 17.816 36.8143 17.332 36.9531L16.7253 34.5278ZM20.4493 30.4348C20.5818 30.9643 20.726 31.5401 20.8287 32.0443C20.9183 32.4848 21.0252 33.0818 20.9667 33.5575L18.5077 33.3183C18.503 33.3556 18.511 33.319 18.4925 33.1623C18.4762 33.0235 18.4457 32.8441 18.4012 32.6258C18.3118 32.187 18.1825 31.6691 18.0463 31.1245L20.4493 30.4348ZM18.1233 34.0485C18.321 33.886 18.4693 33.6291 18.5077 33.3183L20.9667 33.5575C20.8507 34.5016 20.3857 35.383 19.6457 35.9911L18.1233 34.0485ZM14.1369 32.8643C14.2751 33.417 14.3651 33.7741 14.4509 34.0426C14.5338 34.3018 14.5877 34.3936 14.6172 34.4348L12.5993 35.9591C12.359 35.6236 12.2108 35.2586 12.0918 34.8865C11.9759 34.5238 11.8643 34.0753 11.7339 33.554L14.1369 32.8643ZM17.332 36.9531C16.848 37.092 16.4215 37.2153 16.0614 37.291C15.6889 37.3691 15.2963 37.418 14.8793 37.3591L15.2909 34.8613C15.3133 34.8645 15.3911 34.8723 15.6298 34.8221C15.8811 34.7695 16.2065 34.6768 16.7253 34.5278L17.332 36.9531ZM14.6172 34.4348C14.7955 34.6836 15.0439 34.8266 15.2909 34.8613L14.8793 37.3591C13.9545 37.2288 13.1405 36.7146 12.5993 35.9591L14.6172 34.4348ZM14.4486 25.4266C13.9298 25.5755 13.6047 25.6696 13.3625 25.7585C13.1324 25.8428 13.0686 25.8913 13.0507 25.906L11.5283 23.9633C11.8619 23.6891 12.2247 23.5211 12.5839 23.3893C12.931 23.262 13.358 23.1403 13.842 23.0013L14.4486 25.4266ZM10.5805 28.9433C10.4501 28.422 10.3374 27.9738 10.2685 27.5976C10.1978 27.2116 10.1557 26.8161 10.2072 26.397L12.6664 26.6363C12.66 26.6878 12.6562 26.7961 12.7054 27.065C12.7564 27.3435 12.8452 27.701 12.9835 28.2536L10.5805 28.9433ZM13.0507 25.906C12.853 26.0685 12.7046 26.3253 12.6664 26.6363L10.2072 26.397C10.3233 25.4528 10.7883 24.5716 11.5283 23.9633L13.0507 25.906ZM13.842 23.0013C14.3259 22.8625 14.7525 22.7391 15.1126 22.6636C15.4852 22.5853 15.8777 22.5365 16.2947 22.5953L15.8831 25.0931C15.8607 25.09 15.7829 25.0821 15.5442 25.1323C15.293 25.1851 14.9675 25.2776 14.4486 25.4266L13.842 23.0013ZM17.1813 27.6666C17.045 27.122 16.9153 26.6041 16.7878 26.1763C16.7243 25.9635 16.6672 25.792 16.6165 25.6628C16.5594 25.5173 16.5354 25.4898 16.5568 25.5196L18.5747 23.9955C18.8475 24.3761 19.0337 24.9503 19.1615 25.3798C19.308 25.8713 19.4518 26.4473 19.5843 26.9768L17.1813 27.6666ZM16.2947 22.5953C17.2195 22.7258 18.0335 23.24 18.5747 23.9955L16.5568 25.5196C16.3785 25.2708 16.1301 25.128 15.8831 25.0931L16.2947 22.5953ZM34.601 26.9908L33.4477 22.3803L35.8507 21.6906L37.004 26.3011L34.601 26.9908ZM33.136 29.8178C33.6548 29.669 33.9798 29.5748 34.222 29.486C34.4522 29.4016 34.516 29.3531 34.5338 29.3385L36.0563 31.2811C35.7227 31.5555 35.3598 31.7235 35.0007 31.8551C34.6537 31.9825 34.2267 32.1043 33.7427 32.2431L33.136 29.8178ZM37.004 26.3011C37.1345 26.8226 37.2472 27.2708 37.3162 27.647C37.3868 28.0328 37.4288 28.4283 37.3773 28.8475L34.9182 28.6083C34.9245 28.5566 34.9283 28.4483 34.8792 28.1796C34.8282 27.901 34.7393 27.5435 34.601 26.9908L37.004 26.3011ZM34.5338 29.3385C34.7315 29.176 34.88 28.9193 34.9182 28.6083L37.3773 28.8475C37.2613 29.7916 36.7963 30.673 36.0563 31.2811L34.5338 29.3385ZM30.4033 27.578C30.5395 28.1225 30.6693 28.6403 30.7967 29.0681C30.8602 29.2811 30.9175 29.4526 30.968 29.5816C31.0252 29.7273 31.0492 29.7546 31.0278 29.7248L29.0098 31.2491C28.7372 30.8685 28.551 30.2943 28.423 29.8646C28.2765 29.3731 28.1327 28.7971 28.0003 28.2676L30.4033 27.578ZM33.7427 32.2431C33.2587 32.382 32.832 32.5053 32.472 32.581C32.0995 32.6591 31.7068 32.708 31.2898 32.6491L31.7015 30.1515C31.7238 30.1545 31.8017 30.1623 32.0405 30.1121C32.2917 30.0595 32.6172 29.9668 33.136 29.8178L33.7427 32.2431ZM31.0278 29.7248C31.206 29.9736 31.4545 30.1166 31.7015 30.1515L31.2898 32.6491C30.365 32.5188 29.551 32.0046 29.0098 31.2491L31.0278 29.7248ZM30.8592 20.7166C30.3403 20.8655 30.0153 20.9596 29.7732 21.0485C29.543 21.133 29.4792 21.1813 29.4613 21.196L27.9388 19.2535C28.2725 18.9791 28.6353 18.8111 28.9945 18.6793C29.3415 18.552 29.7685 18.4303 30.2525 18.2913L30.8592 20.7166ZM27.1353 24.8096C27.0028 24.2801 26.8585 23.7043 26.7558 23.2001C26.6662 22.7596 26.5593 22.1628 26.6178 21.687L29.077 21.9263C29.0815 21.889 29.0735 21.9256 29.092 22.0821C29.1085 22.2211 29.1388 22.4003 29.1833 22.6186C29.2727 23.0575 29.402 23.5755 29.5382 24.12L27.1353 24.8096ZM29.4613 21.196C29.2637 21.3585 29.1152 21.6153 29.077 21.9263L26.6178 21.687C26.7338 20.7428 27.1988 19.8616 27.9388 19.2535L29.4613 21.196ZM30.2525 18.2913C30.7365 18.1525 31.1632 18.0293 31.5232 17.9536C31.8957 17.8753 32.2883 17.8266 32.7053 17.8853L32.2937 20.3831C32.2713 20.38 32.1935 20.3721 31.9547 20.4223C31.7035 20.4751 31.378 20.5678 30.8592 20.7166L30.2525 18.2913ZM33.4477 22.3803C33.3095 21.8275 33.2195 21.4705 33.1337 21.2018C33.0508 20.9426 32.9968 20.851 32.9673 20.8096L34.9853 19.2855C35.2257 19.6208 35.3738 19.986 35.4927 20.358C35.6087 20.7206 35.7203 21.1691 35.8507 21.6906L33.4477 22.3803ZM32.7053 17.8853C33.63 18.0158 34.4442 18.53 34.9853 19.2855L32.9673 20.8096C32.7892 20.5608 32.5407 20.418 32.2937 20.3831L32.7053 17.8853ZM28.6402 25.6775L18.6862 28.5343L18.0795 26.1091L28.0333 23.2521L28.6402 25.6775ZM18.9445 29.567L28.8985 26.7101L29.5052 29.1355L19.5512 31.9923L18.9445 29.567Z" fill="#15155A"/>
</svg>
