<svg width="100" height="60" viewBox="0 0 100 60" fill="none" xmlns="http://www.w3.org/2000/svg">
<path d="M33.3333 30.3399C33.3333 26.5259 33.3333 24.6188 34.1986 23.0379C35.064 21.4571 36.6449 20.4759 39.8067 18.5136L43.14 16.4448C46.4823 14.3705 48.1535 13.3334 50 13.3334C51.8465 13.3334 53.5176 14.3705 56.86 16.4448L60.1933 18.5136C63.3551 20.4759 64.936 21.4571 65.8013 23.0379C66.6666 24.6188 66.6666 26.5259 66.6666 30.3399V32.875C66.6666 39.3764 66.6666 42.6272 64.714 44.6469C62.7615 46.6667 59.6186 46.6667 53.3333 46.6667H46.6666C40.3812 46.6667 37.2386 46.6667 35.2859 44.6469C33.3333 42.6272 33.3333 39.3764 33.3333 32.875V30.3399Z" stroke="#15155A" stroke-width="2.5"/>
<path d="M55 40H45" stroke="#15155A" stroke-width="2.5" stroke-linecap="round"/>
</svg>
