<svg width="40" height="40" viewBox="0 0 40 40" fill="none" xmlns="http://www.w3.org/2000/svg">
<path d="M13.0718 6.33689C16.453 4.33454 18.1437 3.33337 20 3.33337C21.8563 3.33337 23.547 4.33454 26.9282 6.33689L28.0718 7.01414C31.453 9.01649 33.1437 10.0177 34.0718 11.6667C35 13.3158 35 15.3181 35 19.3229V20.6772C35 24.682 35 26.6844 34.0718 28.3334C33.1437 29.9824 31.453 30.9835 28.0718 32.9859L26.9282 33.6632C23.547 35.6655 21.8563 36.6667 20 36.6667C18.1437 36.6667 16.453 35.6655 13.0718 33.6632L11.9282 32.9859C8.547 30.9835 6.8564 29.9824 5.9282 28.3334C5 26.6844 5 24.682 5 20.6772V19.3229C5 15.3181 5 13.3158 5.9282 11.6667C6.8564 10.0177 8.547 9.01649 11.9282 7.01414L13.0718 6.33689Z" stroke="#15155A" stroke-width="2.5"/>
<path d="M20 25C22.7614 25 25 22.7614 25 20C25 17.2386 22.7614 15 20 15C17.2386 15 15 17.2386 15 20C15 22.7614 17.2386 25 20 25Z" stroke="#15155A" stroke-width="2.5"/>
</svg>
