<svg width="35" height="25" viewBox="0 0 35 25" fill="none" xmlns="http://www.w3.org/2000/svg">
<path d="M1.74794 0.820737C1.09666 0.591753 0.383077 0.934103 0.154111 1.58537C-0.0748727 2.23665 0.267477 2.95024 0.918744 3.1792L1.74794 0.820737ZM32.4297 13.4712L33.6538 13.7236L33.6555 13.716L32.4297 13.4712ZM7.51348 13.2666V8.73057H5.01348V13.2666H7.51348ZM2.18329 0.973787L1.74794 0.820737L0.918744 3.1792L1.35409 3.33227L2.18329 0.973787ZM16.2292 24.0833H25.0673V21.5833H16.2292V24.0833ZM7.51348 8.73057C7.51348 7.55197 7.51518 6.56847 7.42866 5.76925C7.33911 4.94195 7.14509 4.18742 6.67513 3.49969L4.61103 4.91019C4.76146 5.13034 4.87763 5.4327 4.94318 6.03829C5.01178 6.67197 5.01348 7.49732 5.01348 8.73057H7.51348ZM1.35409 3.33227C2.46678 3.72347 3.19803 3.98272 3.73611 4.24674C4.24148 4.4947 4.46426 4.69542 4.61103 4.91019L6.67513 3.49969C6.20149 2.80659 5.57174 2.36269 4.83736 2.00235C4.13566 1.65805 3.23993 1.34529 2.18329 0.973787L1.35409 3.33227ZM5.01348 13.2666C5.01348 15.6875 5.03619 17.4331 5.26461 18.7668C5.50848 20.1906 5.99538 21.2101 6.90576 22.1703L8.71998 20.4503C8.18638 19.8875 7.89856 19.3363 7.72873 18.3448C7.54346 17.263 7.51348 15.7483 7.51348 13.2666H5.01348ZM16.2292 21.5833C13.8678 21.5833 12.2294 21.5803 10.9949 21.4053C9.80359 21.2363 9.17421 20.9293 8.71998 20.4503L6.90576 22.1703C7.89553 23.2143 9.15021 23.6688 10.6439 23.8805C12.0946 24.0863 13.9423 24.0833 16.2292 24.0833V21.5833ZM6.26348 8.44997H26.4813V5.94997H6.26348V8.44997ZM31.2053 13.2189L30.3725 17.2601L32.821 17.7648L33.6538 13.7236L31.2053 13.2189ZM26.4813 8.44997C27.9087 8.44997 29.1648 8.45164 30.1562 8.56245C30.6488 8.61752 31.0175 8.69402 31.2765 8.78505C31.5455 8.87957 31.5883 8.95209 31.5668 8.92395L33.5483 7.3996C33.1567 6.89057 32.606 6.60239 32.1053 6.42642C31.5945 6.24694 31.0168 6.14309 30.434 6.07794C29.2743 5.9483 27.8623 5.94997 26.4813 5.94997V8.44997ZM33.6555 13.716C33.9375 12.3028 34.177 11.117 34.2357 10.1673C34.2958 9.19027 34.1847 8.22692 33.5483 7.3996L31.5668 8.92395C31.6702 9.05844 31.7843 9.30059 31.7403 10.0133C31.6947 10.7532 31.5003 11.7413 31.2038 13.2266L33.6555 13.716ZM25.0673 24.0833C26.3368 24.0833 27.4022 24.0855 28.261 23.9803C29.1538 23.8711 29.9682 23.6323 30.679 23.053L29.0997 21.115C28.891 21.285 28.5952 21.4208 27.9573 21.499C27.2853 21.5811 26.3995 21.5833 25.0673 21.5833V24.0833ZM30.3725 17.2601C30.1035 18.5648 29.9225 19.4321 29.7063 20.0736C29.5012 20.6825 29.3083 20.945 29.0997 21.115L30.679 23.053C31.3898 22.4736 31.7882 21.7243 32.0755 20.872C32.3518 20.052 32.5647 19.0081 32.821 17.7648L30.3725 17.2601Z" fill="#15155A"/>
</svg>
